<?xml version="1.0" encoding="UTF-8"?>
<!DOCTYPE svg PUBLIC "-//W3C//DTD SVG 1.1//EN" "http://www.w3.org/Graphics/SVG/1.1/DTD/svg11.dtd">
<!-- Creator: CorelDRAW 2018 (64-Bit) -->
<svg xmlns="http://www.w3.org/2000/svg" xml:space="preserve" width="180px" height="180px" version="1.1" style="shape-rendering:geometricPrecision; text-rendering:geometricPrecision; image-rendering:optimizeQuality; fill-rule:evenodd; clip-rule:evenodd"
viewBox="0 0 611 611"
 xmlns:xlink="http://www.w3.org/1999/xlink">
 <defs>
  <style type="text/css">
   <![CDATA[
    .fil0 {fill:none}
    .fil1 {fill:black}
    .fil2 {fill:red}
    .fil3 {fill:white;fill-rule:nonzero}
   ]]>
  </style>
 </defs>
 <g id="Layer_x0020_1">
  <metadata id="CorelCorpID_0Corel-Layer"/>
  <rect class="fil0" width="611" height="611"/>
  <g id="_749040640">
   <path class="fil1" d="M155 108l359 -96c31,-8 57,13 57,47l0 249c0,34 -26,68 -57,77l-359 96c-32,8 -58,-12 -58,-46l0 -249c0,-34 26,-69 58,-78z"/>
   <path class="fil2" d="M101 190l351 -94c34,-9 62,12 62,45l0 250c0,33 -28,69 -62,78l-68 18 0 114 -111 -84 -172 46c-34,9 -61,-11 -61,-45l0 -249c0,-34 27,-70 61,-79z"/>
   <path class="fil3" d="M407 399l-27 7 0 -13c-15,17 -32,28 -51,33 -14,4 -25,3 -33,-2 -10,-5 -13,-15 -10,-29l37 -148c4,-15 15,-28 32,-41 14,-9 29,-16 45,-20 15,-4 28,-5 39,-2 13,4 18,13 14,28l-11 45 -50 13 12 -47c2,-9 -2,-12 -12,-10 -10,3 -16,9 -18,18l-38 152c-2,10 1,13 11,11 10,-3 16,-9 19,-19l12 -49 -29 8 6 -28 80 -21 -28 114z"/>
   <path class="fil3" d="M311 262c5,-19 2,-27 -9,-24 -10,2 -16,8 -18,17l-17 65 1 0 1 0c18,-5 29,-14 32,-27 1,-3 2,-8 5,-16 3,-7 4,-12 5,-15zm41 14c-2,7 -6,14 -11,22 -17,24 -40,39 -70,47 -4,1 -7,2 -11,3l-24 96 -50 14 47 -187c4,-15 14,-28 32,-41 13,-9 28,-16 44,-20 16,-4 28,-5 39,-2 13,4 17,14 14,29l-10 39z"/>
   <path class="fil3" d="M254 258l-61 16 -14 57 88 -24 -7 30 -89 24 -27 108 -50 13 47 -185c10,-39 15,-41 50,-50l70 -19 -7 30z"/>
  </g>
 </g>
</svg>
